<?xml version="1.0" standalone="no"?>
<!DOCTYPE svg PUBLIC "-//W3C//DTD SVG 20010904//EN"
 "http://www.w3.org/TR/2001/REC-SVG-20010904/DTD/svg10.dtd">
<svg version="1.0" xmlns="http://www.w3.org/2000/svg"
 width="1536.000000pt" height="1024.000000pt" viewBox="0 0 1536.000000 1024.000000"
 preserveAspectRatio="xMidYMid meet">

<g transform="translate(0.000000,1024.000000) scale(0.100000,-0.100000)"
fill="#000000" stroke="none">
<path d="M3160 7164 c-19 -2 -78 -9 -130 -14 -267 -30 -529 -123 -745 -265
-531 -351 -825 -945 -802 -1615 20 -548 208 -966 601 -1338 306 -288 648 -457
1081 -533 224 -39 706 -26 795 21 28 15 26 58 -2 69 -13 5 -86 14 -163 20
-425 35 -775 189 -1045 460 -217 218 -361 477 -420 756 -27 130 -37 351 -21
479 67 530 426 984 881 1116 93 27 322 38 426 21 196 -33 333 -107 484 -260
116 -117 170 -200 217 -336 25 -73 27 -93 27 -225 1 -162 -11 -222 -69 -347
-107 -231 -320 -417 -538 -468 -74 -17 -244 -19 -319 -4 -170 35 -321 171
-377 337 -26 76 -28 198 -5 286 33 127 129 260 235 323 196 117 442 56 503
-125 19 -54 19 -65 5 -132 -15 -72 -80 -140 -132 -140 -50 0 -82 40 -72 90 4
19 8 51 9 70 1 28 -3 36 -25 44 -61 21 -156 -30 -185 -101 -35 -84 -1 -213 72
-268 69 -52 118 -67 213 -63 73 2 97 8 153 36 118 58 241 215 263 337 14 76 6
201 -15 266 -89 263 -366 423 -670 389 -208 -24 -359 -99 -520 -260 -190 -190
-290 -413 -306 -688 -21 -343 104 -679 347 -936 223 -235 476 -378 784 -442
124 -26 443 -27 562 -1 436 93 812 398 1028 832 78 158 117 269 151 429 22
101 27 157 31 343 8 309 -14 464 -98 718 -155 468 -484 858 -885 1052 -105 51
-127 51 -132 -3 -2 -25 6 -36 69 -84 408 -315 652 -909 600 -1460 -37 -381
-169 -680 -413 -935 -244 -256 -507 -374 -833 -376 -133 0 -189 8 -308 43 -62
18 -104 49 -92 68 3 4 78 5 167 3 150 -4 171 -3 261 21 193 50 376 156 535
310 150 145 261 309 336 496 72 179 98 317 97 512 -1 347 -96 623 -312 914
-217 290 -537 487 -880 539 -104 15 -353 27 -419 19z m263 -395 c20 -5 37 -14
37 -20 0 -15 -65 -39 -107 -39 -58 0 -188 -27 -293 -61 -526 -170 -974 -725
-1099 -1361 -32 -160 -46 -188 -75 -146 -12 17 -16 49 -16 130 0 241 72 526
184 732 219 402 604 694 1006 761 93 16 312 19 363 4z m476 -39 c12 -22 36
-47 53 -56 l30 -15 -41 -36 c-23 -19 -48 -48 -57 -64 -15 -31 -34 -39 -34 -14
0 22 -56 81 -91 95 l-31 13 44 21 c25 12 53 36 67 59 13 20 27 37 31 37 3 0
16 -18 29 -40z m555 -576 c9 -8 16 -22 16 -30 0 -17 -35 -54 -52 -54 -17 0
-48 31 -48 47 0 47 52 70 84 37z m608 -1391 c22 -20 23 -41 1 -65 -31 -35 -73
-16 -73 34 0 42 40 60 72 31z m-3006 -53 c18 -45 66 -90 95 -90 30 0 23 -13
-21 -38 -22 -12 -54 -45 -72 -72 -18 -28 -35 -50 -38 -50 -3 0 -15 23 -27 49
-13 32 -36 60 -62 79 l-41 30 47 24 c34 17 53 35 68 65 11 23 23 42 28 43 4 0
14 -18 23 -40z m912 -72 c20 -20 14 -56 -13 -74 -24 -16 -27 -16 -45 1 -36 32
-20 85 25 85 12 0 26 -5 33 -12z m1440 -534 c28 -20 30 -69 3 -84 -45 -24 -81
-2 -81 49 0 17 33 51 50 51 3 0 16 -7 28 -16z"/>
<path d="M10736 7053 c-138 -29 -230 -79 -340 -182 -70 -67 -126 -147 -159
-228 -54 -133 -52 -77 -52 -1348 0 -1324 -5 -1231 75 -1390 70 -139 208 -271
345 -328 144 -60 97 -58 1405 -55 l1195 3 70 24 c94 31 137 54 218 114 126 92
230 253 262 403 22 104 22 2325 0 2441 -50 268 -275 489 -557 547 -113 23
-2355 23 -2462 -1z m2449 -268 c166 -44 287 -176 314 -346 14 -86 14 -2167 1
-2264 -26 -179 -154 -325 -324 -371 -42 -12 -244 -14 -1206 -14 -793 0 -1167
4 -1194 11 -161 43 -290 184 -316 345 -6 36 -10 496 -10 1169 0 1194 -1 1165
51 1266 45 89 136 164 244 201 46 16 136 17 1215 18 1016 0 1173 -2 1225 -15z"/>
<path d="M10930 5255 l0 -1135 225 0 225 0 0 832 0 832 93 -137 c166 -246 391
-574 720 -1052 l324 -470 266 -3 267 -2 0 1135 0 1135 -225 0 -225 0 0 -816
c0 -448 -3 -813 -8 -810 -4 2 -101 143 -215 313 -115 169 -299 441 -409 603
-110 162 -263 388 -340 503 l-139 207 -280 0 -279 0 0 -1135z"/>
<path d="M9155 7018 c-5 -17 -318 -1366 -434 -1873 -49 -214 -91 -383 -94
-375 -3 8 -30 105 -61 215 -58 212 -396 1426 -501 1805 l-63 225 -347 0 -348
0 -19 -65 c-37 -130 -132 -477 -273 -990 -240 -879 -305 -1121 -305 -1136 0
-8 -3 -14 -7 -14 -5 0 -34 120 -67 268 -93 427 -332 1508 -383 1735 l-47 207
-408 0 c-224 0 -408 -3 -408 -7 0 -9 16 -70 173 -658 64 -236 179 -671 257
-965 78 -294 217 -816 309 -1160 l167 -625 384 0 383 0 19 65 c34 120 557
2015 569 2065 10 40 14 45 21 30 4 -11 55 -189 114 -395 58 -206 157 -557 220
-780 63 -223 129 -454 146 -515 16 -60 53 -191 82 -290 l51 -180 386 -3 387
-2 4 22 c3 13 39 149 81 303 96 356 408 1523 482 1805 68 257 334 1258 341
1283 5 16 -19 17 -401 17 -315 0 -407 -3 -410 -12z"/>
</g>
</svg>
